<svg width="112" height="50" viewBox="0 0 112 50" fill="none" xmlns="http://www.w3.org/2000/svg">
<path d="M15.9003 17.0134C15.3574 16.7189 13.8012 16.901 11.932 17.4665C8.66081 19.6522 5.89997 22.8722 5.70731 28.043C5.67223 28.1667 5.34958 28.0262 5.28576 27.988C4.4024 26.333 4.05243 24.5903 4.79002 22.0763C4.92749 21.8526 4.47802 21.5772 4.39721 21.6559C4.23531 21.8144 3.56039 22.5171 3.11214 23.2771C0.89021 27.0447 2.34325 31.8722 6.23064 33.9848C10.1172 36.1008 15.0251 34.7359 17.1892 30.9357C19.6927 26.5497 17.3681 17.8147 15.9004 17.0135L15.9003 17.0134Z" fill="#82B541"/>
<path d="M29.8122 19.1184C25.2038 19.1184 21.8589 22.4671 21.8589 27.0811C21.8589 31.7329 25.1951 34.9818 29.9727 34.9818C32.3859 34.9818 34.2964 34.2442 35.8158 32.7259C36.2696 32.2469 36.3185 31.7853 36.3185 31.6089C36.3185 30.8567 35.7462 30.3104 34.9578 30.3104C34.5604 30.3104 34.228 30.4571 33.8467 30.8017C32.9863 31.5853 31.8533 32.3858 29.9727 32.3858C27.3576 32.3858 25.2309 30.4666 25.0969 28.0021H35.505C36.6368 28.0021 37.1866 27.4849 37.1866 26.4213C37.1866 26.1082 37.1866 25.8822 37.1222 25.4364C36.5615 21.4805 33.8291 19.1189 29.8124 19.1189L29.8122 19.1184ZM29.8122 21.5885C32.311 21.5885 33.9145 23.1451 34.0134 25.6574H25.1002C25.3342 23.3323 27.3454 21.5885 29.812 21.5885H29.8122Z" fill="black"/>
<path d="M47.1252 19.1184C45.0317 19.1184 42.959 20.295 42.1493 21.9292V20.9192C42.1493 19.3547 40.9088 19.2755 40.6603 19.2755C39.9253 19.2755 39.1398 19.7072 39.1398 20.9192V33.1171C39.1398 34.7418 40.4602 34.8239 40.7248 34.8239C40.9893 34.8239 42.3104 34.7418 42.3104 33.1171V26.5782C42.3104 23.7331 43.9598 21.7459 46.3212 21.7459C48.6084 21.7459 49.7207 23.2131 49.7207 26.2319V33.1171C49.7207 34.7418 51.0417 34.8239 51.3063 34.8239C51.5708 34.8239 52.8912 34.7418 52.8912 33.1171V25.2586C52.8912 22.2904 51.3764 19.1193 47.1252 19.1193V19.1184Z" fill="black"/>
<path d="M67.2371 19.2759C66.5045 19.2759 65.9731 19.6936 65.6567 20.5155L61.3189 31.1777L57.0142 20.5155C56.6772 19.6813 56.1498 19.2759 55.4016 19.2759C54.5275 19.2759 53.816 19.9426 53.816 20.7623C53.816 20.9651 53.8396 21.2282 54.015 21.6392L59.0001 33.1447C59.5942 34.5327 60.5713 34.824 61.2867 34.824C62.0016 34.824 62.9792 34.5327 63.5745 33.1454L68.592 21.5759C68.7634 21.17 68.7899 20.872 68.7899 20.731C68.7899 19.9018 68.1216 19.2761 67.2371 19.2761V19.2759Z" fill="black"/>
<path d="M76.4531 19.1185C74.4253 19.1185 72.5366 19.6705 71.1357 20.6717C70.6606 20.9921 70.4294 21.3918 70.4294 21.8944C70.4294 22.5864 70.97 23.1289 71.6613 23.1289C71.9604 23.1289 72.2951 23.0125 72.6022 22.8022C73.8065 22.0175 74.9383 21.6515 76.1633 21.6515C78.5074 21.6515 79.8531 22.8169 79.8531 24.8491V25.1858C74.5909 25.1914 69.2386 25.8126 69.2386 30.2874C69.2386 33.508 72.0543 34.9499 74.8447 34.9499C77.067 34.9499 78.8418 34.0892 79.9805 32.4595V33.2431C79.9805 34.4102 80.7822 34.824 81.4701 34.824C81.6149 34.824 82.894 34.7796 82.894 33.2431V25.0371C82.894 21.3303 80.4856 19.1177 76.4529 19.1177L76.4531 19.1185ZM79.1861 27.4676H79.8532V28.1815C79.8532 30.7927 78.1521 32.4797 75.5204 32.4797C74.8061 32.4797 72.4746 32.3172 72.4746 30.2244C72.4745 27.7531 76.3048 27.4676 79.1861 27.4676Z" fill="black"/>
<path d="M91.1522 22.0916C92.5394 22.0916 92.6096 21.0365 92.6096 20.8251C92.6096 20.1977 92.2265 19.5271 91.1522 19.5271H88.2997V16.7067C88.2997 15.4469 87.4635 15 86.7469 15C86.4823 15 85.1619 15.0821 85.1619 16.7067V30.0994C85.1619 33.1902 86.7216 34.8238 89.673 34.8238C90.4367 34.8238 91.181 34.6916 91.6674 34.4702C92.2254 34.1981 92.5451 33.7506 92.5451 33.243C92.5451 32.5268 92.0137 32.0074 91.281 32.0074C91.1395 32.0074 90.9383 32.0417 90.7163 32.1041C90.4448 32.1705 90.2608 32.1963 90.0595 32.1963C88.8587 32.1963 88.2997 31.4301 88.2997 29.7847V22.0903H91.1522V22.0916Z" fill="black"/>
<path d="M101.635 19.1184C96.8399 19.1184 93.3608 22.4408 93.3608 27.0178C93.3608 29.2462 94.2039 31.2773 95.7337 32.7366C97.252 34.1841 99.3477 34.9813 101.635 34.9813C106.371 34.9813 109.942 31.5578 109.942 27.0179C109.942 22.4408 106.448 19.1185 101.635 19.1185L101.635 19.1184ZM101.635 32.3535C98.3468 32.3535 96.6271 29.6692 96.6271 27.0175C96.6271 23.3736 99.2232 21.7141 101.635 21.7141C104.047 21.7141 106.643 23.3736 106.643 27.0175C106.643 30.6839 104.047 32.3535 101.635 32.3535Z" fill="black"/>
</svg>
