<svg width="112" height="50" viewBox="0 0 112 50" fill="none" xmlns="http://www.w3.org/2000/svg">
<path d="M0.152013 13.1215C0.0844007 13.1712 0.0336914 13.5526 0.0336914 13.9506C0.0336914 14.5974 0.101304 14.7135 0.608397 15.012C0.929556 15.1944 1.23381 15.5095 1.28452 15.7085C1.33523 15.9075 1.38594 19.8045 1.38594 24.3649V32.6566L0.794331 33.1209C0.168916 33.6019 -0.000114701 34.2984 0.40556 34.6964C0.692913 34.9783 5.12153 34.9783 5.40888 34.6964C5.5272 34.5803 5.61172 34.2486 5.61172 33.9501C5.61172 33.5024 5.4934 33.3365 4.93559 32.9883L4.25947 32.5737L4.27637 27.0514C4.27637 24.0333 4.31018 21.6121 4.34398 21.7116C4.4285 21.894 7.47106 34.7129 7.47106 34.8124C7.47106 34.8622 7.94435 34.8954 8.53596 34.8954H9.58395L11.1728 28.2123C12.0518 24.5474 12.7786 21.5126 12.8124 21.4794C12.8462 21.4463 12.8801 23.9172 12.8801 26.9851V32.5737L12.2546 32.8722C11.6461 33.1375 11.6123 33.1873 11.6123 33.9833V34.8124H21.0781L21.1288 34.3315C21.2133 33.6019 21.0274 33.1044 20.6048 32.9717C20.4019 32.9219 20.0977 32.7561 19.9456 32.6069C19.6582 32.3747 19.6413 31.7445 19.6413 24.0333C19.6413 17.6487 19.692 15.6587 19.861 15.4431C19.9625 15.2773 20.3343 15.0285 20.6555 14.8627C21.2809 14.5642 21.4499 14.1496 21.264 13.4034L21.1626 13.0054L17.3256 13.0385L13.4886 13.0883L12.0518 17.1015C11.2405 19.3236 10.5643 21.1312 10.5136 21.1312C10.4629 21.1312 9.78679 19.307 9.00924 17.0683L7.57248 13.0054H3.92141C1.90994 13.0054 0.202722 13.0551 0.152013 13.1215ZM26.673 14.531C26.5209 15.3768 25.6588 19.7216 24.7629 24.1991C23.2417 31.844 23.1233 32.3581 22.667 32.8224C22.0584 33.4526 21.8387 34.0496 22.0246 34.5305C22.1599 34.8954 22.1937 34.8954 24.746 34.8622C27.3153 34.8124 27.3322 34.8124 27.3829 34.4144C27.4843 33.7014 27.2646 33.237 26.6561 32.9551C25.9124 32.6069 25.8785 32.4742 26.0983 31.2636L26.3011 30.252H28.4478C30.8819 30.252 30.7466 30.1691 30.9157 31.7445C31.0002 32.6566 31.0002 32.6732 30.3917 33.1375C29.8508 33.5355 29.7663 33.6682 29.817 34.1989L29.8677 34.8124L33.992 34.8622C36.8825 34.8954 38.184 34.8456 38.3361 34.7129C38.4714 34.6134 38.5728 34.232 38.5728 33.8838C38.5728 33.3863 38.4714 33.1873 38.1671 32.9883C37.9474 32.839 37.6431 32.4742 37.5079 32.1923C37.3558 31.8938 36.4768 27.6319 35.5302 22.7066C34.5836 17.7814 33.7047 13.5858 33.5695 13.3702C33.3328 13.0054 33.2652 13.0054 30.155 13.0054H26.9772L26.673 14.531ZM29.4282 23.3036C29.9015 25.9072 30.2903 28.1625 30.2903 28.3118C30.2903 28.5605 30.0536 28.5937 28.4309 28.5937C26.5885 28.5937 26.5716 28.5937 26.6561 28.2123C26.8082 27.5821 28.4309 18.8095 28.4309 18.6105C28.4309 17.9638 28.6676 19.108 29.4282 23.3036V23.3036ZM39.1982 13.1049C39.1306 13.1712 39.0799 13.5526 39.0799 13.9506C39.0799 14.5808 39.1306 14.6969 39.5363 14.8461C39.7898 14.9456 40.0603 15.1115 40.1279 15.211C40.1955 15.327 40.2631 19.2241 40.2631 23.9006V32.3913L39.6715 32.839C39.1813 33.2039 39.0799 33.3863 39.0799 33.8838C39.0799 34.2154 39.1644 34.5803 39.2827 34.6964C39.5701 34.9783 46.5341 34.9783 46.8215 34.6964C47.1934 34.3315 47.0581 33.3365 46.6018 32.9054L46.1792 32.5239V25.2273L47.0581 25.3102C48.5118 25.4594 48.5456 25.5589 48.5456 29.3731C48.5456 33.038 48.6977 33.8838 49.4246 34.4808C49.9317 34.8954 49.9824 34.8954 52.5009 34.8622L55.0533 34.8124L55.104 34.033C55.1378 33.436 55.0871 33.2204 54.8336 33.038C54.5462 32.8556 54.4955 32.5405 54.4279 30.3349C54.3603 28.5108 54.2589 27.665 54.0391 27.1344C53.6504 26.2223 52.3826 25.1112 51.2501 24.7132L50.3543 24.3981L51.1656 24.083C53.7349 23.088 55.0195 21.0649 54.7322 18.3949C54.5124 16.3386 53.1771 14.5476 51.098 13.5526L50.1514 13.0883L44.7424 13.0385C41.7506 13.0054 39.2658 13.0385 39.1982 13.1049V13.1049ZM47.6159 14.7466C47.9878 14.8793 48.2752 15.1612 48.3935 15.4431C48.4949 15.725 48.5456 17.1844 48.5118 19.2407C48.4611 22.3584 48.4273 22.6403 48.1061 23.0714C47.8188 23.4529 47.599 23.5524 46.9567 23.5855L46.1792 23.6353V14.4979H46.6018C46.8384 14.4979 47.2948 14.614 47.6159 14.7466ZM56.1013 13.1215C55.8985 13.3039 55.9661 14.2491 56.2027 14.5145C56.3041 14.6637 56.6084 14.8959 56.8788 15.0451L57.3352 15.3436L57.3014 24.0001L57.2507 32.6566L56.6253 33.0546C56.0675 33.4029 55.983 33.5521 55.983 34.0828C55.983 34.4808 56.0675 34.7295 56.2534 34.7958C56.4056 34.8456 59.2453 34.8954 62.5752 34.8954C67.5447 34.8954 68.6603 34.8622 68.8124 34.6632C69.0491 34.3813 69.8773 30.252 69.759 29.9535C69.7083 29.8043 69.3533 29.7545 68.542 29.7877L67.4095 29.8374L66.7672 31.3299C66.4122 32.1425 65.9896 32.9219 65.8375 33.0214C65.6854 33.1375 65.1952 33.237 64.7388 33.237H63.9274V24.4313C63.9274 18.9256 63.9951 15.526 64.0965 15.327C64.181 15.1612 64.536 14.929 64.8571 14.8295C65.4487 14.6305 65.4656 14.614 65.4149 13.8677L65.3642 13.0883L60.7835 13.0385C58.2649 13.022 56.1689 13.0551 56.1013 13.1215V13.1215ZM70.469 13.1215C70.4013 13.1712 70.3506 13.5195 70.3506 13.8677C70.3506 14.415 70.4351 14.5476 70.9084 14.8295C71.1958 14.9954 71.5507 15.2275 71.6691 15.327C71.8212 15.4597 71.8719 17.4 71.8719 23.9172C71.8719 28.5439 71.8043 32.4079 71.7367 32.5074C71.6691 32.6234 71.331 32.8224 70.976 32.9717C70.3506 33.2204 70.3337 33.237 70.3844 34.0164L70.4351 34.8124H79.3938L79.4445 34.1989C79.4783 33.7511 79.4107 33.5189 79.1741 33.3034C78.9881 33.1541 78.6501 32.8556 78.3965 32.64L77.957 32.2586V24.0499C77.957 19.1909 78.0246 15.6753 78.1261 15.4265C78.2106 15.1778 78.5317 14.8959 78.8867 14.7632C79.4445 14.531 79.4783 14.4647 79.4783 13.7682V13.0054H75.0328C72.5818 13.0054 70.5197 13.0551 70.469 13.1215V13.1215ZM80.2728 13.1049C80.2051 13.1712 80.1544 13.5029 80.1544 13.8511C80.1544 14.3984 80.2389 14.531 80.8813 14.9456L81.5912 15.4265V32.6566L80.9489 32.9551C80.2559 33.3034 80.053 33.7677 80.3066 34.4476L80.4925 34.8954L83.3998 34.8622L86.3241 34.8124V34.0662C86.3241 33.3863 86.2734 33.3034 85.7494 33.038C84.6676 32.5074 84.7014 32.7561 84.7521 27.4826L84.8028 22.6734L88.437 28.7761L92.0711 34.8954H95.3672V15.1612L96.0095 14.8627C96.6012 14.5974 96.635 14.531 96.635 13.8345V13.0883L93.6431 13.0385L90.6344 13.0054V13.6521C90.6344 14.332 90.8034 14.531 91.6993 14.9788L92.2402 15.2441L92.2909 19.2904C92.3078 21.5292 92.2909 23.3036 92.2233 23.2539C92.1725 23.1875 90.7696 20.8824 89.13 18.113L86.1212 13.0883L83.2477 13.0385C81.6757 13.022 80.3404 13.0551 80.2728 13.1049V13.1049ZM97.3956 13.7516C97.3956 14.4813 97.4294 14.5145 98.1562 14.8627L98.9169 15.2275V23.7679C98.9169 28.4776 98.8493 32.4079 98.7817 32.5074C98.714 32.6069 98.3929 32.8224 98.0717 32.9883C97.7506 33.1541 97.4294 33.3697 97.3618 33.4692C97.159 33.7511 97.2097 34.4808 97.4294 34.6964C97.6661 34.9285 110.665 34.9949 110.817 34.7461C110.867 34.6798 111.138 33.5687 111.425 32.3084C112 29.6882 111.983 29.5887 110.698 29.5887C109.718 29.5887 109.414 29.8374 108.771 31.2139C107.943 33.0049 107.69 33.237 106.574 33.237H105.678V23.9504H106.506C107.487 23.9504 107.791 24.1825 108.045 25.0946C108.281 25.9735 108.535 26.1394 109.6 26.073L110.496 26.0233L110.546 23.2207C110.58 21.0814 110.529 20.3849 110.377 20.2689C110.259 20.2025 109.802 20.1362 109.363 20.1362C108.484 20.1362 108.197 20.3849 107.96 21.3799C107.774 22.1594 107.571 22.292 106.591 22.292H105.678V14.6637H106.489C107.47 14.6637 107.909 15.0451 108.704 16.604C109.262 17.715 109.633 17.914 110.935 17.7814C111.713 17.715 111.713 17.4829 111.053 15.0783L110.496 13.0883L103.954 13.0385L97.3956 13.0054V13.7516Z" fill="black"/>
</svg>
