<svg width="112" height="50" viewBox="0 0 112 50" fill="none" xmlns="http://www.w3.org/2000/svg">
<g clip-path="url(#clip0_103_249)">
<path d="M26.8185 35.9522V26.5584C26.8185 24.6013 26 23.605 24.3988 23.605C22.7798 23.605 21.9614 24.5835 21.9614 26.5584V35.9522H17.1755V26.5584C17.1755 24.6013 16.3749 23.605 14.7737 23.605C13.1546 23.605 12.354 24.5835 12.354 26.5584V35.9522H7.58594V26.0068C7.58594 23.9608 8.29759 22.413 9.72091 21.3633C10.9663 20.4203 12.6743 19.9578 14.8092 19.9578C16.962 19.9578 18.5632 20.5093 19.5951 21.6302C20.4847 20.5271 22.0859 19.9578 24.4166 19.9578C26.5516 19.9578 28.2418 20.4203 29.4872 21.3633C30.9105 22.413 31.6221 23.9608 31.6221 26.0068V35.9522H26.8185Z" fill="#F98012"/>
<path d="M85.4058 35.8988V9.08716H90.1917V35.9166H85.4058V35.8988Z" fill="#F98012"/>
<path d="M79.3033 35.8987V34.3153C78.8763 34.8846 78.1468 35.3472 77.1327 35.6852C76.2254 36.0055 75.3536 36.1478 74.5352 36.1478C72.2579 36.1478 70.4254 35.365 69.0376 33.7994C67.6499 32.2337 66.9561 30.2945 66.9561 27.9816C66.9561 25.7043 67.6321 23.8006 68.9843 22.2527C70.1763 20.8828 72.1334 19.9399 74.3929 19.9399C76.9192 19.9399 78.4137 20.9006 79.3033 21.9859V9.05151H83.9646V35.881H79.3033V35.8987ZM79.3033 26.9675C79.3033 26.1135 78.8941 25.2951 78.0935 24.5122C77.2929 23.7294 76.4389 23.338 75.6027 23.338C74.3751 23.338 73.4143 23.8362 72.7027 24.8325C72.08 25.7221 71.7597 26.8073 71.7597 28.0705C71.7597 29.3337 72.08 30.4012 72.7027 31.273C73.4143 32.3049 74.3929 32.803 75.6027 32.803C76.3321 32.803 77.1505 32.465 78.0223 31.7534C78.8941 31.0595 79.3211 30.3478 79.3211 29.6006V26.9675H79.3033Z" fill="#F98012"/>
<path d="M57.9535 36.3256C55.5339 36.3256 53.5235 35.5606 51.9578 34.0128C50.3744 32.4827 49.5916 30.5079 49.5916 28.0704C49.5916 25.6508 50.3744 23.676 51.9578 22.1459C53.5412 20.6158 55.5339 19.833 57.9535 19.833C60.3731 19.833 62.3836 20.598 63.967 22.1459C65.5682 23.676 66.3689 25.6686 66.3689 28.0704C66.3689 30.4901 65.5682 32.4649 63.967 34.0128C62.3836 35.5606 60.3731 36.3256 57.9535 36.3256ZM57.9535 23.6937C56.7971 23.6937 55.9075 24.1207 55.2848 25.0103C54.6621 25.8821 54.3596 26.914 54.3596 28.1238C54.3596 29.3336 54.6443 30.3477 55.2314 31.1661C55.8897 32.1091 56.7971 32.5717 57.9535 32.5717C59.11 32.5717 60.0173 32.1091 60.6756 31.1661C61.2805 30.3299 61.583 29.3158 61.583 28.1238C61.583 26.914 61.2983 25.8999 60.7112 25.0815C60.0529 24.1385 59.1278 23.6937 57.9535 23.6937Z" fill="#F98012"/>
<path d="M40.6603 36.3256C38.2407 36.3256 36.2302 35.5606 34.6646 34.0128C33.0812 32.4827 32.2983 30.5079 32.2983 28.0704C32.2983 25.6508 33.0812 23.676 34.6646 22.1459C36.248 20.6158 38.2407 19.833 40.6603 19.833C43.0799 19.833 45.0904 20.598 46.6738 22.1459C48.2572 23.6937 49.0756 25.6686 49.0756 28.0704C49.0756 30.4901 48.275 32.4649 46.6738 34.0128C45.0904 35.5606 43.0799 36.3256 40.6603 36.3256ZM40.6603 23.6937C39.5039 23.6937 38.6143 24.1207 37.9916 25.0103C37.3689 25.8821 37.0664 26.914 37.0664 28.1238C37.0664 29.3336 37.3511 30.3477 37.9382 31.1661C38.5965 32.1091 39.5039 32.5717 40.6603 32.5717C41.8167 32.5717 42.7241 32.1091 43.3824 31.1661C43.9873 30.3299 44.2898 29.3158 44.2898 28.1238C44.2898 26.914 44.0051 25.8999 43.418 25.0815C42.7597 24.1385 41.8345 23.6937 40.6603 23.6937Z" fill="#F98012"/>
<path d="M95.8491 29.5473C95.9559 30.6859 97.4326 33.1411 99.87 33.1411C102.236 33.1411 103.357 31.7712 103.41 31.2197L108.445 31.1841C107.894 32.8743 105.67 36.4326 99.781 36.4326C97.3436 36.4326 95.0841 35.6675 93.4829 34.1552C91.8816 32.6252 91.0632 30.6503 91.0632 28.1951C91.0632 25.6687 91.8638 23.6583 93.4829 22.146C95.1019 20.6515 97.1835 19.9043 99.7454 19.9043C102.539 19.9043 104.709 20.8295 106.275 22.6798C107.716 24.3877 108.445 26.6828 108.445 29.5651H95.8491V29.5473ZM103.66 26.5939C103.464 25.562 103.037 24.7258 102.379 24.0675C101.631 23.3558 100.777 23 99.8166 23C98.8203 23 97.9841 23.338 97.3258 24.0319C96.6497 24.7258 96.2049 25.562 95.9737 26.5939H103.66Z" fill="#F98012"/>
<path d="M16.8553 19.2282L21.6056 15.7589L21.5523 15.5454C12.9946 16.5951 9.09828 17.3423 1.71484 21.6123L1.78601 21.808H2.37313C2.31975 22.3951 2.23079 23.854 2.35533 26.0601C1.53693 28.4264 2.33754 30.0454 3.08478 31.789C3.20932 29.9742 3.19153 27.9816 2.64 25.989C2.53325 23.8184 2.62221 22.3773 2.67558 21.8258L7.56822 21.8614C7.56822 21.8614 7.53264 23.338 7.71055 24.7258C12.0872 26.2558 16.4817 24.7258 18.8124 20.9362C18.1363 20.2068 16.8553 19.2282 16.8553 19.2282Z" fill="#333333"/>
</g>
<defs>
<clipPath id="clip0_103_249">
<rect width="112" height="50" fill="white"/>
</clipPath>
</defs>
</svg>
