<svg width="112" height="50" viewBox="0 0 112 50" fill="none" xmlns="http://www.w3.org/2000/svg">
<path fill-rule="evenodd" clip-rule="evenodd" d="M78.732 37.7489H94.6443C95.7603 37.7489 97.4499 36.2108 97.9278 35.1885L101.18 28.0901C102.313 25.5057 100.718 23.4107 97.9278 23.4107H92.8763C92.3183 23.4107 91.866 23.0668 91.866 22.6426C91.866 22.2184 92.3183 21.8744 92.8763 21.8744H101.464L105 14.1933H90.3505L84.7938 25.459C83.6455 28.0365 84.5297 30.0517 87.3196 30.0517H91.866V30.0677C92.424 30.0677 92.8763 30.4116 92.8763 30.8358C92.8763 31.26 92.424 31.6039 91.866 31.6039H81.7629L78.732 37.7489ZM40.0876 39.2851C38.5532 39.2851 37.3093 40.5461 37.3093 42.1016C37.3093 43.657 38.5532 44.918 40.0876 44.918H52.9691L55.4948 39.2851H40.0876ZM49.9381 14.1933L42.7003 30.0768C42.4664 30.5903 42.515 31.3962 42.8092 31.8769L45.8695 36.8786C46.1636 37.3592 46.8544 37.7489 47.4124 37.7489H56.5052L67.6186 14.1933H61.5567L53.9794 30.5798H48.4227L56 14.1933H49.9381ZM77.7216 20.8503L69.6392 37.7489H75.701L83.7835 20.8503H77.7216ZM80.7526 14.1933L78.2268 19.314H82.2706C83.3866 19.314 84.6954 18.4936 85.1941 17.4816L85.9115 16.0257C86.4102 15.0137 85.9098 14.1933 84.7939 14.1933H80.7526ZM7 37.7489H21.9021C23.018 37.7489 24.7076 36.2108 25.1856 35.1885L28.4381 28.0901C29.5711 25.5057 27.9755 23.4107 25.1856 23.4107H20.134C19.576 23.4107 19.1237 23.0668 19.1237 22.6426C19.1237 22.2184 19.576 21.8744 20.134 21.8744H28.7216L32.2577 14.1933H17.6082L12.0515 25.459C10.9033 28.0365 11.7874 30.0517 14.5773 30.0517H19.1237V30.0677C19.6817 30.0677 20.134 30.4116 20.134 30.8358C20.134 31.26 19.6817 31.6039 19.1237 31.6039H10.0309L7 37.7489ZM74.6907 6L60.0412 37.7489H66.6082L81.2577 6H74.6907ZM38.3196 6L30.5579 23.8075C31.4327 24.6595 31.6419 26.5436 30.9638 28.0901L26.1959 37.7489H37.3093L39.3299 32.6281C39.8289 31.6163 39.6882 30.5798 38.5722 30.5798H34.2783L38.3196 21.8744H42.866C43.424 21.8744 43.6404 21.3629 43.8763 20.8503L46.9072 14.1933H41.3505L44.8866 6H38.3196Z" fill="url(#paint0_linear_103_340)"/>
<defs>
<linearGradient id="paint0_linear_103_340" x1="53.2216" y1="6.51208" x2="53.2216" y2="37.7489" gradientUnits="userSpaceOnUse">
<stop stop-color="#745DC0"/>
<stop offset="1" stop-color="#5497D8"/>
</linearGradient>
</defs>
</svg>
