<svg width="112" height="50" viewBox="0 0 112 50" fill="none" xmlns="http://www.w3.org/2000/svg">
<path d="M102.145 19.803C105.368 19.803 107.544 21.5897 107.677 24.3443H104.926C104.796 23.062 103.756 22.2 102.14 22.2C100.637 22.2 99.7011 22.873 99.7011 23.9025C99.7011 24.8319 100.376 25.2981 101.341 25.6227L101.552 25.6902L101.771 25.7541L101.997 25.8151L102.349 25.9026L102.711 25.9874L103.333 26.1295L103.703 26.2167L104.038 26.3005L104.261 26.3597L104.483 26.4221C104.52 26.4329 104.557 26.4437 104.594 26.4548L104.813 26.5231L105.03 26.5959C105.066 26.6085 105.101 26.6212 105.137 26.6342L105.349 26.7146C106.82 27.2972 108 28.2985 108 30.4627C108 33.1957 105.67 34.8571 102.317 34.8571C98.8553 34.8571 96.5911 32.8381 96.4389 29.7476L96.4355 29.7456H99.2018C99.355 31.3894 100.487 32.4364 102.316 32.4364C103.949 32.4364 105.082 31.8066 105.082 30.5028C105.082 29.5067 104.266 29.0432 103.148 28.6978L102.92 28.6302L102.686 28.565L102.199 28.4388L101.309 28.2165L101.051 28.149L100.792 28.0784L100.534 28.004C100.449 27.9784 100.363 27.9521 100.278 27.9249L100.024 27.8406C98.3425 27.2587 96.8901 26.2728 96.8901 23.9004C96.892 21.4829 99.0478 19.803 102.145 19.803ZM56.9387 24.0897V30.1033C56.9387 31.554 57.8536 32.563 59.225 32.563C60.7274 32.563 61.7724 31.4276 61.7724 29.8721V24.0897H64.4504V34.6867H61.7724V33.0428C61.1628 34.1997 59.9219 34.8511 58.3547 34.8511C55.8725 34.8511 54.2607 33.127 54.2607 30.6458V24.0897H56.9387ZM42.1334 19.9696L48.731 30.356V19.9696H51.6048V34.6867H48.5128L41.894 24.3219V34.6867H39.0203V19.9696H42.1334ZM94.7142 19.9696V30.4814C94.7142 33.3202 93.2991 34.6867 90.9043 34.6867H87.5601V32.1869H90.9788C91.2072 32.1869 91.4271 32.0991 91.5888 31.9429C91.7506 31.7866 91.8413 31.5747 91.8413 31.3537V19.9696H94.7142ZM82.0424 20.8941V24.0894H85.0909V26.2553H82.0424V31.5158C82.0424 31.6924 82.1148 31.8619 82.2444 31.9869C82.3736 32.112 82.5488 32.1823 82.7321 32.1826H85.0909V34.6824H83.3269C80.9316 34.6824 79.3644 33.3364 79.3644 30.9836V26.2574H77.2091V24.0894H78.5613C79.192 24.0894 79.5592 23.7268 79.5592 23.1267V20.8941H82.0424ZM69.0004 23.9221L71.1998 26.9716L73.3762 23.9221H76.3163L72.636 28.9894L76.599 34.5191H73.7689L71.1998 30.9868L68.6303 34.5191H65.7776L69.7411 28.9894L66.0829 23.9221H69.0004Z" fill="black"/>
<path d="M16.6605 17.0206C15.8567 15.6598 13.8471 15.6598 13.0433 17.0206L4.28291 31.8517C3.47909 33.2126 4.48386 34.9136 6.0915 34.9136H12.9304C12.2434 34.3225 11.989 33.2999 12.5089 32.4225L19.1436 21.2245L16.6605 17.0206Z" fill="#80EEC0"/>
<path d="M22.2113 20.2738C22.8765 19.1604 24.5396 19.1604 25.2048 20.2738L32.4548 32.4083C33.12 33.5217 32.2885 34.9135 30.958 34.9135H16.4581C15.1276 34.9135 14.2961 33.5217 14.9613 32.4083L22.2113 20.2738Z" fill="#00DC82"/>
</svg>
