<svg width="112" height="50" viewBox="0 0 112 50" fill="none" xmlns="http://www.w3.org/2000/svg">
<g clip-path="url(#clip0_103_286)">
<path d="M35.8191 29.6065L39.6279 18.1134H43.0576L46.6558 29.6065H43.8163L43.201 27.5851H39.2994L38.6841 29.6065H35.8191ZM41.3049 21.3507L39.982 25.5556H42.5857L41.3049 21.3507ZM48.3834 29.6065V17.7881H51.08V29.6065H48.3834ZM53.945 33.7002V21.1707H56.1445L56.3646 22.1456L56.3977 22.0942C56.6285 21.7429 56.9037 21.4737 57.2232 21.2864C57.6669 21.0268 58.1388 20.8969 58.6389 20.8969C59.3017 20.8969 59.9309 21.0737 60.5265 21.4277C61.1221 21.7816 61.6066 22.2928 61.9799 22.9607C62.3536 23.629 62.5405 24.4394 62.5405 25.3929C62.5405 26.3405 62.351 27.1487 61.9718 27.8166C61.5922 28.4844 61.0952 28.9956 60.4799 29.3496C59.8651 29.7035 59.2063 29.8803 58.504 29.8803C57.8919 29.8803 57.3805 29.755 56.9705 29.5035L56.9216 29.473C56.8252 29.4098 56.7343 29.3381 56.65 29.2589L56.6415 29.2512V33.7002H53.945ZM58.8706 27.1829C59.1431 27.0517 59.3734 26.8403 59.5617 26.5492C59.7499 26.2581 59.844 25.8727 59.844 25.3929C59.844 24.9875 59.7736 24.6335 59.6334 24.331C59.4927 24.0285 59.2946 23.7944 59.0391 23.629C58.7837 23.4632 58.4789 23.3802 58.1249 23.3802C57.8385 23.3802 57.5826 23.4404 57.3581 23.5602C57.1331 23.68 56.9579 23.8499 56.8311 24.07L56.8069 24.1142C56.7047 24.3091 56.65 24.5333 56.6424 24.7861L56.6415 24.8449V26.2321C56.6415 26.4608 56.7065 26.6603 56.8356 26.8316C56.9646 27.0029 57.139 27.1373 57.3581 27.2343C57.5773 27.3314 57.8157 27.3797 58.0743 27.3797C58.3328 27.3797 58.5981 27.3141 58.8706 27.1829V27.1829ZM65.1062 19.6851C64.8283 19.4195 64.6894 19.0441 64.6894 18.559C64.6894 18.0852 64.8283 17.7066 65.1062 17.4241C65.3845 17.1417 65.7793 17 66.2902 17C66.7845 17 67.1753 17.1417 67.4617 17.4241C67.748 17.7066 67.8914 18.0852 67.8914 18.559C67.8914 19.0441 67.748 19.4195 67.4617 19.6851C67.1753 19.9507 66.7845 20.0833 66.2902 20.0833C65.7793 20.0833 65.3845 19.9507 65.1062 19.6851V19.6851ZM64.9422 29.6065V21.1197H67.6387V29.6065H64.9422ZM70.7399 29.6065V21.1707H73.116L73.3889 22.3607L73.4122 22.321C73.6372 21.9452 73.902 21.6477 74.2072 21.4277C74.6989 21.0737 75.2564 20.8969 75.8802 20.8969C76.5936 20.8969 77.1762 21.0596 77.6284 21.3848C78.0806 21.7106 78.4136 22.1584 78.6273 22.7297C78.8407 23.3005 78.9473 23.9543 78.9473 24.6909V29.6065H76.2338V24.6909C76.2338 24.2454 76.1271 23.9155 75.9138 23.7014C75.7 23.4873 75.4419 23.3802 75.1385 23.3802C74.8293 23.3802 74.5456 23.4691 74.2875 23.6458C74.0289 23.8231 73.8223 24.1069 73.6681 24.4982L73.6475 24.552C73.5135 24.9182 73.4431 25.3893 73.4369 25.9651L73.4364 26.0526V29.6065H70.7399ZM82.9417 29.3322C82.3295 28.9669 81.8334 28.4448 81.4543 27.7651C81.0751 27.0858 80.8856 26.2808 80.8856 25.3501C80.8856 24.4194 81.0738 23.6217 81.4502 22.9566C81.8267 22.2914 82.321 21.7816 82.9332 21.4277C83.5453 21.0737 84.2028 20.8969 84.905 20.8969C85.6019 20.8969 86.2083 21.0382 86.7254 21.3206C87.2421 21.6035 87.6594 21.9844 87.9767 22.4641C88.294 22.9438 88.5019 23.4846 88.6 24.0868L88.6148 24.182C88.6959 24.7547 88.67 25.3437 88.5369 25.9496H83.5485V25.9323C83.5485 26.2922 83.5991 26.6034 83.7 26.8658C83.8012 27.1287 83.9514 27.3328 84.1508 27.4781C84.3502 27.6239 84.6016 27.6968 84.905 27.6968C85.1524 27.6968 85.3684 27.6453 85.554 27.5423C85.7395 27.4398 85.8686 27.2772 85.9416 27.0544H88.6211C88.5369 27.5797 88.3307 28.0562 88.0018 28.4844C87.6733 28.9127 87.2462 29.2525 86.7209 29.5035C86.1957 29.755 85.5903 29.8803 84.905 29.8803C84.2086 29.8803 83.5539 29.6976 82.9417 29.3322V29.3322ZM86.185 24.5173C86.1814 24.4157 86.172 24.3137 86.1563 24.2112C86.1254 24.0057 86.0653 23.8158 85.9752 23.6417C85.8856 23.4673 85.7574 23.3274 85.5921 23.2222C85.4262 23.1165 85.2143 23.0636 84.9557 23.0636C84.6693 23.0636 84.4206 23.1333 84.21 23.2732C83.9993 23.413 83.8362 23.6158 83.721 23.8814L83.6991 23.9351C83.6274 24.1173 83.5812 24.3255 83.5606 24.5597V24.5624H86.1859L86.185 24.5173ZM90.1843 29.2639C89.8504 28.9327 89.6832 28.5159 89.6832 28.0134C89.6832 27.5054 89.8504 27.0831 90.1843 26.746C90.5186 26.4093 90.9528 26.2408 91.4866 26.2408C92.0199 26.2408 92.4609 26.4093 92.8095 26.746C93.1577 27.0831 93.3321 27.5054 93.3321 28.0134C93.3321 28.5218 93.1577 28.94 92.8095 29.268C92.4609 29.5965 92.0199 29.7605 91.4866 29.7605C90.9528 29.7605 90.5186 29.5951 90.1843 29.2639V29.2639ZM95.4554 19.6851C95.1632 19.4195 95.0171 19.0441 95.0171 18.559C95.0171 18.0852 95.1632 17.7066 95.4554 17.4241C95.7476 17.1417 96.1406 17 96.6349 17C97.1297 17 97.52 17.1417 97.8064 17.4241C98.0928 17.7066 98.2362 18.0852 98.2362 18.559C98.2362 19.0441 98.0928 19.4195 97.8064 19.6851C97.52 19.9507 97.1297 20.0833 96.6349 20.0833C96.1406 20.0833 95.7476 19.9507 95.4554 19.6851V19.6851ZM93.7112 33.867C93.3289 33.7786 92.9444 33.6802 92.5568 33.5718V31.2165C92.7983 31.3135 93.0762 31.4019 93.3908 31.4821C93.7054 31.5618 93.9976 31.6019 94.2674 31.6019C94.6156 31.6019 94.8755 31.519 95.0467 31.3536C95.2179 31.1878 95.3039 30.8598 95.3039 30.3687V21.1366H98.017V30.4201C98.017 31.7162 97.7643 32.6365 97.2588 33.1818C96.7533 33.7271 96.0089 34 95.0256 34C94.5313 34 94.093 33.9554 93.7112 33.867V33.867ZM102.222 29.5596C101.615 29.3455 101.142 29.0225 100.802 28.5915C100.462 28.1605 100.295 27.6166 100.301 26.9601H102.736C102.747 27.2571 102.861 27.4626 103.078 27.5769C103.294 27.6908 103.587 27.7482 103.958 27.7482C104.183 27.7482 104.368 27.7195 104.514 27.6626C104.66 27.6052 104.77 27.5296 104.843 27.4353C104.916 27.3414 104.952 27.2398 104.952 27.1314C104.952 26.9888 104.902 26.8745 104.801 26.7888C104.699 26.7032 104.542 26.6175 104.329 26.5319L102.315 25.7355C101.719 25.4845 101.26 25.1661 100.937 24.7807C100.614 24.3952 100.452 23.9369 100.452 23.4062C100.452 22.6582 100.792 22.0532 101.472 21.5903C102.152 21.1279 103.082 20.8969 104.262 20.8969C105.368 20.8969 106.219 21.1593 106.815 21.6846C107.41 22.2099 107.711 22.8782 107.716 23.6887H105.248C105.248 23.506 105.171 23.3474 105.02 23.2135C104.868 23.0791 104.615 23.0121 104.262 23.0121C103.969 23.0121 103.739 23.0609 103.571 23.1579C103.402 23.255 103.318 23.3834 103.318 23.5433C103.318 23.7602 103.494 23.9315 103.848 24.0568L106.141 24.9902C106.708 25.2189 107.154 25.5041 107.48 25.8467C107.806 26.1893 107.969 26.6175 107.969 27.1314C107.969 27.5997 107.81 28.0434 107.493 28.463C107.175 28.8826 106.742 29.2238 106.191 29.4867C105.641 29.7491 105.017 29.8803 104.32 29.8803C103.528 29.8803 102.829 29.7732 102.222 29.5596V29.5596Z" fill="#2D3441"/>
<path d="M25.4122 17.3525L31.5214 23.5337L25.4122 29.7148L19.3035 23.5337L25.4122 17.3525Z" fill="#77C1D2"/>
<path d="M10.1395 17.3525L22.8043 30.1668H10.5863L4.03076 23.5337L10.1395 17.3525Z" fill="#2D3441"/>
</g>
<defs>
<clipPath id="clip0_103_286">
<rect width="104" height="17" fill="white" transform="translate(4 17)"/>
</clipPath>
</defs>
</svg>
