<svg width="112" height="50" viewBox="0 0 112 50" fill="none" xmlns="http://www.w3.org/2000/svg">
<g clip-path="url(#clip0_103_323)">
<path d="M9.3275 11.6069C9.24017 11.6394 9.131 11.7261 9.08733 11.7911C9.04367 11.8561 9 17.4775 9 24.2796C9 35.3817 9.02183 36.6598 9.17467 36.8115C9.31659 36.9523 9.65501 36.9848 11.2161 36.9848C12.2532 36.9848 13.1702 36.9306 13.2575 36.8765C13.3995 36.7898 13.4213 36.2591 13.4322 33.3021C13.4431 31.1142 13.4868 29.7819 13.5523 29.7169C13.7051 29.5653 13.7597 29.6411 18.1592 35.1868C18.6723 35.8367 19.229 36.5082 19.3928 36.6815L19.6875 36.9848L22.2857 36.9631L24.8839 36.9306L24.8512 36.6707C24.8402 36.5299 24.6437 36.2049 24.4145 35.9558C24.1961 35.7067 23.4756 34.8185 22.8097 33.9953C22.1547 33.1721 21.074 31.8074 20.408 30.9734C18.3448 28.3955 18.2793 28.298 18.2793 28.0489C18.2793 27.9081 18.4539 27.5832 18.6723 27.3232C19.36 26.4892 21.2923 24.0197 21.8818 23.229C22.0892 22.9474 22.5805 22.3083 22.9735 21.8209C23.3665 21.3335 23.7813 20.8028 23.9014 20.6403C24.0215 20.4778 24.3053 20.1204 24.5455 19.8388C25.2332 19.0047 25.2223 19.0047 22.3294 19.0047C20.9539 19.0047 19.7421 19.0372 19.6439 19.0697C19.5456 19.1131 19.3054 19.3514 19.1198 19.6005C18.9233 19.8496 18.3011 20.6511 17.7334 21.3876C17.1657 22.1133 16.5217 22.9474 16.3142 23.229C16.0086 23.6406 14.4911 25.6119 13.847 26.4351C13.6942 26.6192 13.4759 26.63 13.465 26.4459C13.454 26.3809 13.4431 23.0448 13.4322 19.0372C13.4213 15.0405 13.3776 11.7261 13.334 11.6719C13.2248 11.5744 9.57859 11.5095 9.3275 11.6069V11.6069ZM29.0323 11.6503C28.5083 11.8019 27.8751 12.3868 27.6022 12.9825C26.9144 14.4556 27.624 16.0803 29.1851 16.6002C29.993 16.871 30.9318 16.6543 31.6851 16.0261C33.1152 14.8347 32.6348 12.311 30.8554 11.6828C30.3969 11.5203 29.5235 11.4986 29.0323 11.6503V11.6503ZM41.2591 18.9939C40.1456 19.2105 39.4905 19.4488 38.8355 19.8929C38.2024 20.3153 38.0168 20.2828 37.5583 19.6655C37.1107 19.0589 37.0015 19.0047 36.3465 19.0047C35.4404 19.0047 35.5278 18.0949 35.5278 27.9298C35.5278 34.6235 35.5605 36.7573 35.6588 36.8548C35.8225 37.0173 39.425 37.0389 39.6761 36.8765C39.818 36.7898 39.8508 35.9775 39.8945 31.0059L39.949 25.2328L40.2984 24.6804C40.4949 24.3771 40.7678 24.0305 40.8988 23.9113C42.2088 22.7091 44.5887 22.9582 45.4948 24.3879C46.117 25.3736 46.117 25.4061 46.117 31.2983C46.117 35.3709 46.1498 36.7573 46.248 36.8548C46.3354 36.9414 46.9576 36.9848 48.3222 36.9848C50.1235 36.9848 50.2654 36.9739 50.3746 36.779C50.4401 36.6382 50.4837 34.6777 50.4837 31.1683C50.4837 27.9298 50.5274 25.6227 50.5929 25.3844C50.7785 24.7237 51.4772 23.8572 52.0667 23.5322C53.0492 23.0015 54.3701 23.034 55.2871 23.6081C55.7565 23.9005 55.9312 24.1063 56.3351 24.7995L56.6517 25.3411L56.6845 31.0167C56.7063 34.8835 56.75 36.7465 56.8373 36.844C56.9246 36.9523 57.4377 36.9848 58.9006 36.9848C60.7128 36.9848 60.8547 36.9739 60.9638 36.779C61.1058 36.5082 61.1058 26.9116 60.9638 25.5577C60.7018 23.1207 59.5447 21.0952 57.7325 19.9471C56.7609 19.3297 55.964 19.0589 54.5557 18.8856C53.5841 18.7665 53.3221 18.7665 52.3505 18.9398C51.0514 19.1672 49.9597 19.6546 49.1956 20.337C48.3331 21.1169 48.355 21.106 47.9729 20.8894C47.7982 20.7811 47.6454 20.6511 47.6454 20.6078C47.6454 20.4995 46.51 19.7413 45.8441 19.4163C45.2328 19.1022 43.6171 18.7773 42.7874 18.799C42.4927 18.8098 41.8049 18.8964 41.2591 18.9939V18.9939ZM71.3348 18.8639C68.1798 19.373 65.931 20.8352 64.4026 23.3914C63.169 25.4386 62.8306 28.0922 63.4747 30.5943C63.7476 31.6666 64.5664 33.2263 65.3196 34.0928C68.6929 38.0138 74.4461 38.5012 78.4525 35.2084C80.6468 33.3996 81.9459 30.4535 81.7712 27.6698C81.6839 26.1209 81.4546 25.2653 80.7778 23.9005C80.2319 22.8065 80.0464 22.5574 79.1075 21.6151C77.994 20.4995 77.3062 20.0337 75.9198 19.4705C74.6426 18.9506 72.5356 18.669 71.3348 18.8639V18.8639ZM73.4199 23.2398C75.0901 23.5972 76.5093 24.8212 77.1643 26.4784C77.4591 27.2149 77.5137 28.5797 77.2953 29.3378C76.8805 30.7568 75.7997 32.0132 74.4351 32.6631C73.5181 33.1072 72.1644 33.2155 71.1601 32.923C69.73 32.5114 68.5837 31.5149 67.8851 30.096C67.4702 29.262 67.4593 29.2079 67.4702 28.1031C67.4811 27.1283 67.5248 26.8791 67.765 26.3592C68.1689 25.4711 68.5401 24.9728 69.2278 24.3879C70.516 23.294 71.8915 22.9149 73.4199 23.2398V23.2398ZM91.5854 18.9398C89.5221 19.2755 87.8737 20.1312 86.4545 21.6259C85.5702 22.5358 85.2973 22.904 84.7733 23.9438C84.2056 25.0378 83.7799 26.8141 83.7799 28.0814C83.7799 30.161 84.5986 32.4789 85.8868 33.9953C87.4916 35.9016 89.5112 36.9848 92.0657 37.3314C93.8233 37.5588 96.0503 37.1256 97.7097 36.2158C98.1354 35.9883 98.5612 35.7933 98.6376 35.7933C98.725 35.7933 99.0306 36.0641 99.3363 36.3891L99.893 36.9848H100.832C101.487 36.9848 101.803 36.9415 101.891 36.8331C101.978 36.7248 102 34.2986 101.989 27.8756L101.956 19.0589L100.352 19.0264C98.5721 18.9939 98.7686 18.9289 98.1027 19.7629C97.8625 20.0662 97.9935 20.0879 96.5962 19.503C95.177 18.9073 93.1465 18.6798 91.5854 18.9398V18.9398ZM94.2054 23.2723C95.2862 23.5539 95.963 23.9655 96.749 24.7995C97.3713 25.4602 97.5569 25.7418 97.8189 26.4459C98.7031 28.8288 97.6551 31.3416 95.2534 32.5873C94.522 32.9663 94.3364 33.0097 93.4412 33.0638C92.2513 33.118 91.4653 32.9339 90.5592 32.3598C89.7514 31.8507 89.5112 31.6341 89.009 30.8976C88.354 29.9444 88.1248 29.2079 88.1248 28.1139C88.1248 26.9983 88.354 26.2726 88.9872 25.3844C90.2317 23.6081 92.3168 22.7632 94.2054 23.2723V23.2723ZM27.7987 19.0264C27.6458 19.178 27.6131 36.6165 27.7659 36.8548C27.886 37.0498 31.8925 37.0606 32.0781 36.8765C32.2418 36.714 32.3073 19.4163 32.1436 19.1131C32.0344 18.9073 31.9034 18.8964 29.982 18.8964C28.5301 18.8964 27.886 18.9398 27.7987 19.0264V19.0264Z" fill="black"/>
</g>
<defs>
<clipPath id="clip0_103_323">
<rect width="93" height="32" fill="white" transform="translate(9 9)"/>
</clipPath>
</defs>
</svg>
