<svg width="112" height="50" viewBox="0 0 112 50" fill="none" xmlns="http://www.w3.org/2000/svg">
<g clip-path="url(#clip0_103_242)">
<path fill-rule="evenodd" clip-rule="evenodd" d="M64.4213 19.072C69.1445 19.072 72.71 22.4567 72.71 26.9214C72.71 31.3871 69.1445 34.7717 64.4213 34.7717C59.6981 34.7717 56.1325 31.3871 56.1325 26.9214C56.1325 22.4567 59.6981 19.072 64.4213 19.072V19.072ZM100.554 19.1449C105.664 19.1449 108 23.0331 108 27.2814C108 27.5613 108 27.8318 107.971 28.1106C107.954 28.2792 107.872 28.3843 107.711 28.3968L107.677 28.3978H97.2842C97.7069 30.2436 98.9379 31.3507 101.033 31.3507C102.301 31.3507 103.339 31.0364 104.581 30.0012C104.701 29.9002 104.828 29.8857 104.957 29.9793L104.985 30.0001L107.007 31.7835C107.145 31.9 107.171 32.054 107.044 32.1976C105.527 33.8988 103.551 34.7717 100.978 34.7717C96.3464 34.7717 92.9837 31.5848 92.9837 26.9401C92.9837 22.6731 96.0883 19.1438 100.556 19.1438L100.554 19.1449ZM83.6105 15.5781C83.7943 15.5781 83.9047 15.6853 83.9047 15.8653V19.4331H87.2122C87.3959 19.4331 87.5064 19.5413 87.5064 19.7213V22.7459C87.5064 22.9259 87.3959 23.0342 87.2122 23.0342H83.9047V29.5694C83.9047 30.5599 84.3551 31.0281 85.2462 31.0281C85.9079 31.0281 86.4496 30.974 87.1028 30.6504C87.3046 30.5505 87.4522 30.614 87.4522 30.8127V33.6387C87.4522 33.7833 87.3959 33.9092 87.2504 33.9987C86.4496 34.4856 85.3928 34.7728 84.0152 34.7728C81.635 34.7728 79.9346 33.9352 79.6127 31.2716C79.5764 30.8832 79.5611 30.4931 79.5671 30.1031V23.0331H78.0227C77.839 23.0331 77.7296 22.9249 77.7296 22.7449V19.7202C77.7296 19.5402 77.839 19.432 78.0227 19.432H79.5671V15.8663C79.5671 15.6863 79.6775 15.5792 79.8613 15.5792H83.6105V15.5781ZM45.3638 19.071C48.1284 19.071 49.9117 20.5922 50.4088 23.1392C50.5002 23.6075 50.5458 24.1662 50.5458 24.8768V34.1225C50.5458 34.3025 50.4354 34.4107 50.2516 34.4107H46.5023C46.3186 34.4107 46.2081 34.3025 46.2081 34.1225V25.9849C46.2081 23.9862 45.2342 22.9239 43.5805 22.9239C41.9257 22.9239 40.8785 23.9675 40.8785 25.9849V34.1225C40.8785 34.3025 40.768 34.4107 40.5842 34.4107H36.835C36.6512 34.4107 36.5408 34.3025 36.5408 34.1225V19.7202C36.5408 19.5402 36.6512 19.432 36.835 19.432H40.5842C40.768 19.432 40.8785 19.5402 40.8785 19.7202V21.4308C42.3208 19.5402 44.0021 19.072 45.3638 19.072V19.071ZM64.4224 22.7439C61.9593 22.7439 60.4161 24.6885 60.4161 26.9203C60.4161 29.1532 61.9593 31.0978 64.4224 31.0978C66.8865 31.0978 68.4287 29.1532 68.4287 26.9203C68.4287 24.6885 66.8854 22.7439 64.4224 22.7439V22.7439ZM100.556 22.5462C98.8285 22.5462 97.7059 23.698 97.2152 25.6572L97.1929 25.7508H103.782C103.478 23.878 102.431 22.5462 100.557 22.5462H100.556Z" fill="black"/>
<path fill-rule="evenodd" clip-rule="evenodd" d="M13.7861 23.5014H10.7538C10.3948 23.5014 10.2758 23.4827 10.0921 23.4286C9.59609 23.285 9.20948 22.7991 9.20948 22.2227C9.20948 21.6463 9.59609 21.1614 10.091 21.0158C10.2758 20.9627 10.3948 20.945 10.7538 20.945H12.7198V19.017C12.7198 18.6653 12.7389 18.5488 12.7941 18.3688C12.9407 17.8735 13.4367 17.5042 14.0251 17.5042C14.6125 17.5042 15.1095 17.8819 15.2572 18.3688C15.3113 18.5488 15.3304 18.6653 15.3304 19.017V21.9876C15.3304 22.1676 15.3304 22.3476 15.2933 22.5099C15.234 22.7403 15.1122 22.9506 14.9407 23.1186C14.7692 23.2866 14.5545 23.406 14.3193 23.464C14.1536 23.5004 13.9699 23.5004 13.7861 23.5004V23.5014ZM23.5268 34.4118H7.26156V20.3769C7.26156 20.1969 7.32529 20.044 7.4538 19.9191L11.6725 15.7853C11.7334 15.7243 11.8063 15.6761 11.8868 15.6437C11.9674 15.6113 12.0539 15.5954 12.1409 15.597H23.5268V34.4118ZM4.79851 18.0192C4.36623 18.4416 4.08265 18.9733 4.02636 19.5674C4.01475 19.6958 4.00873 19.8246 4.0083 19.9534V35.8248C4.0083 36.0319 4.01786 36.139 4.02636 36.2202C4.1007 36.8965 4.72523 37.5083 5.41454 37.5801C5.49739 37.5884 5.60785 37.5978 5.81815 37.5978H24.9702C25.1816 37.5978 25.292 37.5884 25.3738 37.5801C26.0642 37.5073 26.6887 36.8955 26.762 36.2202C26.7716 36.139 26.7801 36.0319 26.7801 35.8248V14.183C26.7801 13.9749 26.7716 13.8677 26.762 13.7865C26.6876 13.1113 26.0631 12.4995 25.3749 12.4277C25.2405 12.414 25.1053 12.4081 24.9702 12.41H11.7086C11.5767 12.4104 11.4449 12.4167 11.3135 12.4287C10.706 12.4818 10.1643 12.7617 9.73204 13.1841L4.79851 18.0192Z" fill="#41C9B4"/>
</g>
<defs>
<clipPath id="clip0_103_242">
<rect width="104" height="26" fill="white" transform="translate(4 12)"/>
</clipPath>
</defs>
</svg>
