<svg width="112" height="50" viewBox="0 0 112 50" fill="none" xmlns="http://www.w3.org/2000/svg">
<path d="M111.927 25.2815C111.913 25.8349 111.791 26.6552 111.561 27.7424H100.724C100.837 32.5674 107.089 31.5217 109.092 29.3934L109.598 32.5959C107.97 33.9657 106.048 34.6507 103.83 34.6507C101.679 34.6507 99.9808 34.0182 98.7353 32.7532C97.4898 31.4881 96.8931 29.8278 96.9453 27.772C96.968 26.8784 97.0822 26.0369 97.2876 25.2476L92.5198 34.2981H87.9555L85.5474 25.2196C85.5584 25.439 85.5608 25.663 85.5547 25.8915C85.4881 28.341 84.5931 30.4132 82.8695 32.1082C81.1461 33.8033 79.0456 34.6508 76.5684 34.6508C74.4228 34.6508 72.6707 33.9845 71.3124 32.652C70.1174 31.4799 69.4694 30.0347 69.3685 28.3168L68.5802 34.2981H64.4841L65.5886 25.9503C65.7355 24.8529 65.6312 24.025 65.2758 23.4666C64.9203 22.9081 64.3622 22.6288 63.6015 22.6288C62.4312 22.6288 61.3142 23.1775 60.2506 24.2749C60.2458 24.4512 60.2191 24.7158 60.1706 25.0685L58.9542 34.2981H54.8581L55.9626 25.9503C56.1095 24.8529 56.0003 24.025 55.6351 23.4666C55.2699 22.9081 54.707 22.6288 53.9462 22.6288C52.8344 22.6288 51.7275 23.1677 50.6254 24.2455L49.299 34.2981H45.2028L46.0665 27.7424H35.3935C35.5071 32.5674 41.759 31.5217 43.7619 29.3934L44.2672 32.5959C42.64 33.9657 40.7175 34.6507 38.4996 34.6507C36.3487 34.6507 34.6505 34.0182 33.4049 32.7532C32.1594 31.4881 31.5627 29.8278 31.6149 27.772C31.6315 27.1222 31.6963 26.5 31.8094 25.9052C31.734 26.0301 31.653 26.1526 31.5665 26.2727C30.8907 27.2107 30.0019 27.8849 28.8997 28.2952L31.4078 34.2752H26.9029L24.7806 28.735H23.639L22.8056 34.2752H18.7288L21.0417 18.8856H27.8094C29.1411 18.8856 30.2714 19.2338 31.1998 19.9299C32.1285 20.6261 32.5906 21.6558 32.5861 23.0188C32.5855 23.2129 32.5765 23.4033 32.5592 23.5901C32.9618 22.7466 33.4924 21.9761 34.1512 21.2787C35.7759 19.5591 37.7923 18.6992 40.2005 18.6992C42.1308 18.6992 43.6922 19.2922 44.8845 20.4782C45.8305 21.4191 46.3851 22.6214 46.5483 24.0849L47.1933 19.1898H51.2894L51.1412 20.3361C52.5338 19.3367 53.9908 18.837 55.5122 18.837C57.4823 18.837 58.8657 19.6111 59.6623 21.1592C61.3819 19.6111 63.2169 18.837 65.1675 18.837C66.806 18.837 68.0491 19.3857 68.8971 20.4831C69.7173 21.5445 70.0245 23.0094 69.8191 24.8776C70.2568 23.5615 71.003 22.3906 72.0579 21.3649C73.7909 19.6796 75.9057 18.837 78.4025 18.837C80.5481 18.837 82.2905 19.4984 83.6298 20.8211C84.1041 21.2897 84.491 21.8045 84.7903 22.3653L83.948 19.1897H88.3953L90.7839 29.2718L95.8561 19.1897H100.479L99.2362 21.5489C99.3159 21.4577 99.3977 21.3676 99.4816 21.2787C101.106 19.5591 103.123 18.6992 105.531 18.6992C107.461 18.6992 109.023 19.2922 110.215 20.4782C111.407 21.6642 111.978 23.2653 111.927 25.2815H111.927ZM26.9218 22.2493H24.6183L24.0977 25.6131H26.4215C26.9787 25.6131 27.4482 25.4189 27.83 25.0304C28.2117 24.6421 28.4035 24.1547 28.4055 23.5685C28.407 23.1288 28.2619 22.799 27.9704 22.5791C27.679 22.3593 27.3294 22.2493 26.9218 22.2493V22.2493ZM39.8649 22.1386C37.9898 22.1386 36.6805 23.0281 35.9367 24.8071H42.8306C42.7103 23.0281 41.7216 22.1386 39.8649 22.1386V22.1386ZM76.9054 30.8591C78.1733 30.8591 79.2244 30.4034 80.0586 29.4923C80.8929 28.581 81.3272 27.4886 81.3618 26.2148C81.3912 25.1371 81.0977 24.27 80.4816 23.6135C79.8655 22.9571 79.0406 22.6288 78.0068 22.6288C76.7584 22.6288 75.7123 23.0844 74.8683 23.9957C74.0242 24.9069 73.585 25.9993 73.5504 27.273C73.5211 28.3508 73.8145 29.2179 74.4305 29.8743C75.0466 30.5308 75.8717 30.8591 76.9054 30.8591V30.8591ZM105.195 22.1386C103.32 22.1386 102.011 23.0281 101.267 24.8071H108.161C108.041 23.0281 107.052 22.1386 105.195 22.1386V22.1386Z" fill="#5E6368"/>
<path d="M14.2075 36.3827C13.6114 36.6433 12.9939 36.8566 12.3549 37.0225C11.1554 37.334 9.92645 37.4898 8.66813 37.4898C5.03208 37.4898 2.15008 36.5207 0.0219727 34.5831L3.72581 30.1529C5.52052 31.4621 7.46171 31.8642 9.55398 31.8642C12.4001 31.8642 14.1796 29.3468 11.396 28.3774C9.6778 27.779 8.27136 27.6061 6.37597 26.7851C5.75977 26.5181 5.10338 26.1398 4.40685 25.6504C3.71027 25.161 3.1953 24.5547 2.86205 23.8317C2.52875 23.1087 2.36688 22.2576 2.37651 21.2787C2.41118 17.7494 4.36759 15.6795 7.38161 14.0628C8.8658 13.2666 10.6523 12.8948 12.7151 12.8948C14.6425 12.8948 16.4018 13.254 17.9933 13.9723L17.0231 19.7155L16.8952 19.8624C15.2589 18.628 13.5856 18.202 11.5087 18.4816C11.1782 18.5261 10.8267 18.6095 10.4542 18.7319C10.0817 18.8542 9.77559 19.0434 9.53583 19.2992C8.86343 20.0168 9.12489 21.0773 9.92371 21.4946C11.1145 22.1168 13.7849 22.5466 15.8294 23.4736C16.0081 23.5546 16.1798 23.6407 16.3447 23.7313L14.2075 36.3826V36.3827Z" fill="#EA4950"/>
<path d="M20.4843 9.17552C20.5017 9.07085 20.6003 9.00011 20.7045 9.01753C20.8087 9.03494 20.8791 9.13402 20.8617 9.23869L15.5258 40.8247C15.5084 40.9294 15.4099 41.0001 15.3057 40.9827C15.2015 40.9652 15.131 40.8662 15.1484 40.7615L20.4843 9.17552Z" fill="#ADACB3"/>
</svg>
