<svg width="112" height="50" viewBox="0 0 112 50" fill="none" xmlns="http://www.w3.org/2000/svg">
<g clip-path="url(#clip0_103_363)">
<path fill-rule="evenodd" clip-rule="evenodd" d="M4.23645 19.7073V37.4664H8.04537L8.01003 19.7073H4.23645Z" fill="#21273B"/>
<path fill-rule="evenodd" clip-rule="evenodd" d="M4.23645 19.7073V37.4664H8.04537L8.01003 19.7073H4.23645Z" stroke="#21273B"/>
<path fill-rule="evenodd" clip-rule="evenodd" d="M4.12866 16.7535H8.15393V13.3738H4.12866V16.7535Z" fill="#21273B"/>
<path fill-rule="evenodd" clip-rule="evenodd" d="M4.12866 16.7535H8.15393V13.3738H4.12866V16.7535Z" stroke="#21273B"/>
<path fill-rule="evenodd" clip-rule="evenodd" d="M21.8442 19.2095C20.4306 19.2095 18.9515 19.3819 17.4061 19.726C15.8606 20.07 14.5496 20.5139 13.4713 21.0603V37.4672H17.244V23.0886C18.4904 22.6387 19.7954 22.4125 21.1607 22.4125C24.012 22.4125 25.4368 23.658 25.4368 26.1499V37.4672H29.2104V25.6505C29.2104 23.4446 28.6105 21.8192 27.4132 20.7751C26.2151 19.7319 24.3594 19.2095 21.8451 19.2095" fill="#21273B"/>
<path fill-rule="evenodd" clip-rule="evenodd" d="M21.8442 19.2095C20.4306 19.2095 18.9515 19.3819 17.4061 19.726C15.8606 20.07 14.5496 20.5139 13.4713 21.0603V37.4672H17.244V23.0886C18.4904 22.6387 19.7954 22.4125 21.1607 22.4125C24.012 22.4125 25.4368 23.658 25.4368 26.1499V37.4672H29.2104V25.6505C29.2104 23.4446 28.6105 21.8192 27.4132 20.7751C26.2151 19.7319 24.3594 19.2095 21.8451 19.2095H21.8442Z" stroke="#21273B"/>
<path fill-rule="evenodd" clip-rule="evenodd" d="M38.696 33.0349C37.7866 32.0531 37.3306 30.4909 37.3306 28.3558C37.3306 26.3155 37.7978 24.8267 38.7322 23.8902C39.6656 22.9529 41.0792 22.4833 42.9729 22.4833C44.4813 22.4833 46.1457 22.8632 47.967 23.623V20.2766C46.2173 19.5663 44.3736 19.2095 42.4333 19.2095C39.8699 19.2095 37.7564 19.9522 36.0912 21.4333C34.4259 22.9162 33.5933 25.3193 33.5933 28.6401C33.5933 31.867 34.438 34.2044 36.1274 35.6514C37.8159 37.0992 39.9294 37.8215 42.4695 37.8215C44.4339 37.8215 46.2776 37.4433 48.0032 36.6844V33.3379C46.3509 34.1207 44.7089 34.5126 43.0815 34.5126C41.068 34.5126 39.6062 34.0209 38.696 33.0357" fill="#21273B"/>
<path fill-rule="evenodd" clip-rule="evenodd" d="M38.696 33.0349C37.7866 32.0531 37.3306 30.4909 37.3306 28.3558C37.3306 26.3155 37.7978 24.8267 38.7322 23.8902C39.6656 22.9529 41.0792 22.4833 42.9729 22.4833C44.4813 22.4833 46.1457 22.8632 47.967 23.623V20.2766C46.2173 19.5663 44.3736 19.2095 42.4333 19.2095C39.8699 19.2095 37.7564 19.9522 36.0912 21.4333C34.4259 22.9162 33.5933 25.3193 33.5933 28.6401C33.5933 31.867 34.438 34.2044 36.1274 35.6514C37.8159 37.0992 39.9294 37.8215 42.4695 37.8215C44.4339 37.8215 46.2776 37.4433 48.0032 36.6844V33.3379C46.3509 34.1207 44.7089 34.5126 43.0815 34.5126C41.068 34.5126 39.6062 34.0209 38.696 33.0357V33.0349Z" stroke="#21273B"/>
<path fill-rule="evenodd" clip-rule="evenodd" d="M60.0402 34.8338C58.3396 34.8338 57.0993 34.2934 56.3218 33.2135C55.5426 32.1344 55.153 30.5756 55.153 28.5336C55.153 26.4933 55.5314 24.9456 56.2856 23.8896C57.0398 22.8344 58.2905 22.3051 60.0402 22.3051C61.7641 22.3051 63.0225 22.8216 63.8129 23.8537C64.6033 24.8867 64.999 26.4464 64.999 28.5336C64.999 32.7337 63.3466 34.8338 60.0402 34.8338ZM60.0402 19.1738C54.2902 19.1738 51.4156 22.294 51.4156 28.5336C51.4156 31.6188 52.1405 33.9682 53.5903 35.5816C55.0392 37.1934 57.2019 38.0001 60.0756 38.0001C62.8545 38.0001 64.999 37.1823 66.5082 35.5458C68.0166 33.9067 68.7717 31.5719 68.7717 28.5336C68.7717 25.4971 68.0408 23.1767 66.5806 21.5761C65.1179 19.9746 62.9381 19.1738 60.0402 19.1738Z" fill="#21273B"/>
<path fill-rule="evenodd" clip-rule="evenodd" d="M60.0402 34.8338C58.3396 34.8338 57.0993 34.2934 56.3218 33.2135C55.5426 32.1344 55.153 30.5756 55.153 28.5336C55.153 26.4933 55.5314 24.9456 56.2856 23.8896C57.0398 22.8344 58.2905 22.3051 60.0402 22.3051C61.7641 22.3051 63.0225 22.8216 63.8129 23.8537C64.6033 24.8867 64.999 26.4464 64.999 28.5336C64.999 32.7337 63.3466 34.8338 60.0402 34.8338ZM60.0402 19.1738C54.2902 19.1738 51.4156 22.294 51.4156 28.5336C51.4156 31.6188 52.1405 33.9682 53.5903 35.5816C55.0392 37.1934 57.2019 38.0001 60.0756 38.0001C62.8545 38.0001 64.999 37.1823 66.5082 35.5458C68.0166 33.9067 68.7717 31.5719 68.7717 28.5336C68.7717 25.4971 68.0408 23.1767 66.5806 21.5761C65.1179 19.9746 62.9381 19.1738 60.0402 19.1738Z" stroke="#21273B"/>
<path fill-rule="evenodd" clip-rule="evenodd" d="M85.1227 33.3389C85.1227 33.7657 84.7443 34.1098 83.9892 34.3718C83.2359 34.6322 82.3058 34.762 81.2051 34.762C79.2882 34.762 77.947 34.1986 77.1807 33.0717C76.4136 31.9448 76.03 30.3852 76.03 28.3918C76.03 24.3829 77.7307 22.3768 81.1327 22.3768C81.8033 22.3768 82.492 22.4664 83.1988 22.644C83.9065 22.8215 84.5477 23.0776 85.1218 23.4097V33.338L85.1227 33.3389ZM85.1227 20.17C84.4503 19.8396 83.6901 19.5895 82.8402 19.423C81.9895 19.2574 81.2413 19.1737 80.594 19.1737C77.8143 19.1737 75.7197 19.9805 74.3062 21.5939C72.8926 23.2074 72.1858 25.4492 72.1858 28.3209C72.1858 31.903 73.0133 34.412 74.6647 35.8479C76.3179 37.2829 78.4262 37.9991 80.9896 37.9991C82.2593 37.9991 83.4927 37.8455 84.6908 37.5382C85.8881 37.2291 86.8827 36.7494 87.6731 36.0971C88.4644 35.4441 88.8592 34.6433 88.8592 33.6949V12.1274H85.1218V20.1691L85.1227 20.17Z" fill="#21273B"/>
<path fill-rule="evenodd" clip-rule="evenodd" d="M85.1227 33.3389C85.1227 33.7657 84.7443 34.1098 83.9892 34.3718C83.2359 34.6322 82.3058 34.762 81.2051 34.762C79.2882 34.762 77.947 34.1986 77.1807 33.0717C76.4136 31.9448 76.03 30.3852 76.03 28.3918C76.03 24.3829 77.7307 22.3768 81.1327 22.3768C81.8033 22.3768 82.492 22.4664 83.1988 22.644C83.9065 22.8215 84.5477 23.0776 85.1218 23.4097V33.338L85.1227 33.3389ZM85.1227 20.17C84.4503 19.8396 83.6901 19.5895 82.8402 19.423C81.9895 19.2574 81.2413 19.1737 80.594 19.1737C77.8143 19.1737 75.7197 19.9805 74.3062 21.5939C72.8926 23.2074 72.1858 25.4492 72.1858 28.3209C72.1858 31.903 73.0133 34.412 74.6647 35.8479C76.3179 37.2829 78.4262 37.9991 80.9896 37.9991C82.2593 37.9991 83.4927 37.8455 84.6908 37.5382C85.8881 37.2291 86.8827 36.7494 87.6731 36.0971C88.4644 35.4441 88.8592 34.6433 88.8592 33.6949V12.1274H85.1218V20.1691L85.1227 20.17Z" stroke="#21273B"/>
<path fill-rule="evenodd" clip-rule="evenodd" d="M96.8125 26.6128C97.028 25.0233 97.496 23.8964 98.214 23.2322C98.9328 22.5664 99.9258 22.2351 101.196 22.2351C102.537 22.2351 103.555 22.5851 104.251 23.2852C104.945 23.9852 105.377 25.0941 105.545 26.612H96.8125V26.6128ZM107.466 21.8612C106.161 20.0702 104.107 19.1738 101.303 19.1738C98.6458 19.1738 96.5841 19.9865 95.1231 21.6111C93.6621 23.2374 92.932 25.5799 92.932 28.6412C92.932 31.6299 93.7043 33.9383 95.2506 35.562C96.7952 37.1882 98.9199 38.0001 101.628 38.0001C104.048 38.0001 106.191 37.5963 108.061 36.7896V33.3031C107.294 33.73 106.407 34.0808 105.401 34.3532C104.394 34.6263 103.341 34.7612 102.239 34.7612C100.538 34.7612 99.2259 34.3054 98.3036 33.3928C97.3813 32.4793 96.8607 31.1442 96.7409 29.3881H109.389C109.413 26.1612 108.772 23.6522 107.467 21.8612H107.466Z" fill="#21273B"/>
<path fill-rule="evenodd" clip-rule="evenodd" d="M96.8125 26.6128C97.028 25.0233 97.496 23.8964 98.214 23.2322C98.9328 22.5664 99.9258 22.2351 101.196 22.2351C102.537 22.2351 103.555 22.5851 104.251 23.2852C104.945 23.9852 105.377 25.0941 105.545 26.612H96.8125V26.6128ZM107.466 21.8612C106.161 20.0702 104.107 19.1738 101.303 19.1738C98.6458 19.1738 96.5841 19.9865 95.1231 21.6111C93.6621 23.2374 92.932 25.5799 92.932 28.6412C92.932 31.6299 93.7043 33.9383 95.2506 35.562C96.7952 37.1882 98.9199 38.0001 101.628 38.0001C104.048 38.0001 106.191 37.5963 108.061 36.7896V33.3031C107.294 33.73 106.407 34.0808 105.401 34.3532C104.394 34.6263 103.341 34.7612 102.239 34.7612C100.538 34.7612 99.2259 34.3054 98.3036 33.3928C97.3813 32.4793 96.8607 31.1442 96.7409 29.3881H109.389C109.413 26.1612 108.772 23.6522 107.467 21.8612H107.466Z" stroke="#21273B"/>
</g>
<defs>
<clipPath id="clip0_103_363">
<rect width="105" height="26" fill="white" transform="translate(4 12)"/>
</clipPath>
</defs>
</svg>
