<svg width="112" height="50" viewBox="0 0 112 50" fill="none" xmlns="http://www.w3.org/2000/svg">
<path d="M47.5078 37.1268C47.5078 37.1268 52.0922 36.7399 52.0922 30.9105C52.0922 25.0812 46.5386 24.5396 46.5386 24.5396H36.5315V42.9303H41.5612V38.4938L45.9098 42.9303H53.3496L47.5078 37.1268ZM45.5693 33.3609H41.5612V29.1566H45.5955C45.5955 29.1566 46.7219 29.5693 46.7219 31.2458C46.7219 32.9224 45.5693 33.3609 45.5693 33.3609ZM64.5093 24.6685H59.401C55.7597 24.6685 54.5285 27.9185 54.5285 29.4661V42.9303H59.6368V39.7061H64.4307V42.9303H69.3819V29.4661C69.3819 25.5455 65.7668 24.6685 64.5093 24.6685ZM64.4307 34.4958H59.6106V30.0336C59.6106 30.0336 59.6106 29.0276 61.2086 29.0276H62.9637C64.3784 29.0276 64.4045 30.0336 64.4045 30.0336V34.4958H64.4307ZM71.7134 24.6685H77.0312V42.9303H71.7134V24.6685ZM84.4972 38.2101V24.6685H79.2056V38.2101V42.9303H84.4972H91.6489V38.2101H84.4972ZM93.404 38.2617V42.9303H101.97C103.725 42.9303 106.738 41.6664 106.843 38.1327V36.3272C106.843 33.3093 104.328 31.5296 101.97 31.5296H97.7003V29.3629H106.162V24.6685H98.0408C95.9451 24.6685 93.1421 26.3709 93.1421 29.5435V31.1685C93.1421 34.3411 95.9189 35.966 98.0408 35.966C103.935 35.9918 96.6262 35.966 102.075 35.966V38.2359L93.404 38.2617Z" fill="#CC0000"/>
<path d="M4.83375 42.9045H25.529C25.529 42.9045 21.5733 25.1328 34.6715 17.9364C37.527 16.5694 46.6171 11.4623 61.4967 22.2955C61.9683 21.9086 62.4136 21.5991 62.4136 21.5991C62.4136 21.5991 48.7914 8.21229 33.6237 9.70831C26.0005 10.3789 16.6222 17.2142 11.1209 26.2419C5.61965 35.2696 4.83375 42.9045 4.83375 42.9045ZM47.9532 11.1527L48.0579 9.42458C47.8222 9.29562 47.1673 8.9861 45.5169 8.52181L45.4121 10.2242C46.2766 10.5079 47.1149 10.8174 47.9532 11.1527ZM45.4645 16.621L45.3597 18.2459C46.2242 18.2717 47.0887 18.3749 47.9532 18.5555L48.0579 16.9563C47.1673 16.7757 46.3028 16.6725 45.4645 16.621ZM35.7718 8.5734H36.0338L35.5098 7C34.6977 7 33.8594 7.05159 32.995 7.15476L33.4927 8.67657C34.2524 8.59919 35.0121 8.5734 35.7718 8.5734ZM37.0292 18.0654L37.6317 19.8451C38.3914 19.484 39.1511 19.1745 39.9108 18.9424L39.3345 17.24C38.4438 17.4979 37.6841 17.7817 37.0292 18.0654ZM25.136 11.2817L23.9572 9.50196C23.3023 9.83728 22.6212 10.1984 21.9139 10.6111L23.1189 12.4166C23.8 12.0039 24.4549 11.617 25.136 11.2817ZM30.5063 22.8888L31.7637 24.7459C32.2091 24.1011 32.733 23.5078 33.3093 22.9146L32.1305 21.1606C31.528 21.7023 30.9778 22.2955 30.5063 22.8888ZM26.7078 31.1943L28.8297 32.845C28.9345 31.8391 29.1179 30.8331 29.3798 29.8272L27.4937 28.357C27.1531 29.3113 26.9174 30.2657 26.7078 31.1943ZM15.2338 18.9424L13.3738 17.3432C12.6927 17.988 12.0378 18.6328 11.4353 19.2777L13.4524 20.9801C14.0025 20.2836 14.605 19.5872 15.2338 18.9424ZM7.32242 30.472L4.30982 29.3887C3.81209 30.4978 3.26196 31.7875 3 32.4839L6.01259 33.5673C6.35315 32.6903 6.90327 31.4264 7.32242 30.472ZM26.3149 37.7458C26.3673 39.1128 26.4982 40.222 26.6292 40.9958L29.7728 42.1049C29.537 41.0989 29.3013 39.964 29.1441 38.7517L26.3149 37.7458Z" fill="#CC0000"/>
</svg>
